<svg xmlns="http://www.w3.org/2000/svg" xmlns:xlink="http://www.w3.org/1999/xlink" width="40" height="40" viewBox="0 0 40 40">
  <defs>
    <path id="behance-a" d="M15.6732047,14 C16.2351731,14 16.7543249,14.0428166 17.23066,14.1712666 C17.7069951,14.2568998 18.097697,14.4335185 18.4455822,14.6476017 C18.7934673,14.8616849 19.0503672,15.1667534 19.2269858,15.5574553 C19.3982524,15.9481571 19.4892377,16.4244922 19.4892377,16.943644 C19.4892377,17.548429 19.3607878,18.0675808 19.0557193,18.4582826 C18.7934673,18.8489844 18.365301,19.1968696 17.8407971,19.4537695 C18.5793841,19.6678527 19.1413525,20.0585545 19.4838857,20.5777063 C19.8264188,21.096858 20.0458541,21.7444597 20.0458541,22.4830467 C20.0458541,23.0878317 19.9174041,23.6069835 19.6979689,24.040502 C19.4838857,24.4740204 19.1360005,24.8647223 18.7452986,25.1216221 C18.3545968,25.383874 17.8782617,25.5979572 17.3591099,25.7264072 C16.8399582,25.8548571 16.3208064,25.9404904 15.8016547,25.9404904 L10,25.9511945 L10,14 L15.6732047,14 Z M15.3253195,18.8489844 C15.8016547,18.8489844 16.1923565,18.7205345 16.492073,18.5010992 C16.7917894,18.281664 16.9255914,17.8963142 16.9255914,17.4199791 C16.9255914,17.1577272 16.8827748,16.9008273 16.7971415,16.7295608 C16.7115082,16.5582942 16.5830583,16.4244922 16.4064397,16.2960423 C16.2351731,16.210409 16.0585545,16.1247757 15.8444713,16.0819591 C15.6303881,16.0391425 15.4109528,16.0391425 15.154053,16.0391425 L12.6439275,16.0391425 L12.6439275,18.8543365 C12.6439275,18.8489844 15.3253195,18.8489844 15.3253195,18.8489844 Z M15.4537695,23.9602208 C15.7160214,23.9602208 15.9729212,23.9174041 16.1923565,23.8745875 C16.4064397,23.8317709 16.625875,23.7461376 16.7971415,23.6123356 C16.9684081,23.4785336 17.1022101,23.3500837 17.23066,23.1360005 C17.3162933,22.9219173 17.4019266,22.6596653 17.4019266,22.3545968 C17.4019266,21.7498118 17.23066,21.3162933 16.8827748,21.0112247 C16.5348896,20.7489728 16.0585545,20.6205229 15.4965861,20.6205229 L12.6439275,20.6205229 L12.6439275,23.9548687 L15.4537695,23.9548687 L15.4537695,23.9602208 Z M23.8137183,23.9174041 C24.1616035,24.2652893 24.6807553,24.4365559 25.3711736,24.4365559 C25.8475087,24.4365559 26.2810272,24.308106 26.6289124,24.0886707 C26.9767976,23.8264188 27.1908808,23.5695189 27.2765141,23.307267 L29.3959377,23.307267 C29.0480525,24.3455705 28.5289008,25.0841576 27.8384825,25.5604927 C27.1480641,25.9940112 26.3238438,26.250911 25.328357,26.250911 C24.6379386,26.250911 24.0278015,26.1224611 23.4658331,25.9030258 C22.9038647,25.6889426 22.4703463,25.383874 22.0796444,24.9503556 C21.6889426,24.5596537 21.3892261,24.0833186 21.2126075,23.5213502 C20.9985243,22.9593818 20.9075389,22.3545968 20.9075389,21.6588264 C20.9075389,21.0112247 20.9931722,20.4010876 21.2126075,19.8391192 C21.4320428,19.2771508 21.7317592,18.8008157 22.1224611,18.3672972 C22.5131629,17.9765954 22.989498,17.6287102 23.5086498,17.414627 C24.0706182,17.2005438 24.6325866,17.0667418 25.328357,17.0667418 C26.066944,17.0667418 26.7145457,17.1951917 27.2765141,17.5002603 C27.8384825,17.8053288 28.2720009,18.147862 28.6198861,18.6670137 C28.9677713,19.1433488 29.2246712,19.7053172 29.4012898,20.3101023 C29.4869231,20.9148873 29.5297397,21.5250244 29.4869231,22.2154427 L23.2089333,22.2154427 C23.2089333,22.9219173 23.4658331,23.5695189 23.8137183,23.9174041 Z M26.5432791,19.3681362 C26.2382105,19.0630676 25.7618754,18.8918011 25.199907,18.8918011 C24.8092052,18.8918011 24.5094887,18.9774343 24.2472368,19.1058843 C23.9849849,19.2343342 23.8137183,19.4109528 23.6424518,19.5822194 C23.4711852,19.7534859 23.3801999,19.9729212 23.3373832,20.1870044 C23.2945666,20.4010876 23.2517499,20.5777063 23.2517499,20.7489728 L27.1480641,20.7489728 C27.0624309,20.1067232 26.8429956,19.6732047 26.5432791,19.3681362 Z M22.7325982,14.8242203 L27.5815826,14.8242203 L27.5815826,15.9909737 L22.7325982,15.9909737 L22.7325982,14.8242203 Z"/>
  </defs>
  <use fill-rule="evenodd" xlink:href="#behance-a"/>
</svg>
