<svg xmlns="http://www.w3.org/2000/svg" width="200" height="20" viewBox="0 0 200 20">
    <g fill="#FFF" fill-rule="nonzero">
        <path d="M.65 15.293V3.748h3.496v4.309l3.252-4.309h4.147L7.48 9.114l4.878 6.179h-4.31l-3.902-4.96v4.96zM18.7 15.293l4.715-11.545h3.414l4.716 11.545h-3.821l-.813-2.114h-3.74l-.813 2.114h-3.659zm5.528-4.797h1.707l-.813-2.764-.894 2.764zM50.163 15.293h-4.147l-3.09-4.065h-.487v4.065h-3.415V3.748h5.529c1.3 0 2.358.325 3.17 1.057.814.65 1.22 1.545 1.22 2.602 0 1.463-.813 2.682-2.114 3.333l3.334 4.553zm-6.017-6.667c.65 0 1.139-.325 1.139-.976 0-.65-.407-.894-1.139-.894H42.52v1.87h1.626zM57.48 15.293V3.748h9.024v3.008h-5.528v1.22h3.983v2.764h-3.983v4.553zM74.472 15.293V3.748h3.495v11.545zM86.341 15.293V3.748h4.879c1.87 0 3.414.57 4.634 1.626 1.22 1.057 1.788 2.439 1.788 4.146 0 1.708-.569 3.09-1.788 4.147-1.22 1.057-2.765 1.626-4.634 1.626H86.34zm3.496-3.09h1.057c1.952 0 3.008-.975 3.008-2.683 0-1.788-1.056-2.683-3.008-2.683h-1.057v5.366zM106.992 5.293c1.138-1.139 2.601-1.789 4.39-1.789 1.789 0 3.252.57 4.39 1.789 1.139 1.138 1.708 2.52 1.708 4.227 0 1.626-.57 3.09-1.708 4.228s-2.601 1.707-4.39 1.707c-1.789 0-3.252-.569-4.39-1.788-1.138-1.139-1.707-2.602-1.707-4.228-.082-1.545.487-2.927 1.707-4.146zm4.39 6.992c.732 0 1.382-.244 1.789-.813.488-.488.731-1.22.731-1.952 0-.731-.243-1.463-.731-1.95-.488-.489-1.057-.814-1.789-.814S110 7 109.593 7.57c-.487.488-.731 1.138-.731 1.951 0 .813.244 1.464.731 1.952.407.569 1.057.813 1.79.813zM128.618 15.374l-4.553-11.545h3.902l2.358 6.83 2.44-6.83h3.82l-4.634 11.545zM155.528 15.293V3.748h.488v10.976h6.83v.569zM170.488 15.293l5.203-11.545h.488l5.203 11.545h-.569l-1.626-3.496h-6.667l-1.626 3.496h-.406zm2.358-3.984h6.341l-3.17-6.91-3.171 6.91zM190.407 15.293V3.748h4.715c2.032 0 3.17 1.057 3.17 2.764 0 1.301-.568 2.114-1.707 2.52 1.708.244 2.765 1.383 2.765 3.09 0 1.951-1.383 3.17-3.659 3.17h-5.284zm.487-6.423h4.147c1.788 0 2.764-.894 2.764-2.277 0-1.463-1.057-2.357-2.764-2.357h-4.147V8.87zm0 5.935h4.716c2.032 0 3.17-.976 3.17-2.764 0-1.708-1.138-2.683-3.17-2.683h-4.716v5.447z"/>
    </g>
</svg>
