<svg xmlns="http://www.w3.org/2000/svg" xmlns:xlink="http://www.w3.org/1999/xlink" width="40" height="40" viewBox="0 0 40 40">
  <defs>
    <path id="vk-a" d="M20.8369749,25.2507201 C20.8369749,25.2507201 21.1449908,25.2171259 21.302755,25.0507939 C21.4471635,24.8983912 21.4421551,24.6107926 21.4421551,24.6107926 C21.4421551,24.6107926 21.4229563,23.2678462 22.0581868,23.0695588 C22.6842353,22.8745489 23.4880816,24.3682592 24.341177,24.9426372 C24.9855895,25.376903 25.4747421,25.2818561 25.4747421,25.2818561 L27.7543933,25.2507201 C27.7543933,25.2507201 28.9463896,25.1786156 28.3812765,24.2584637 C28.3345315,24.1830818 28.0515576,23.5775678 26.6867719,22.3337651 C25.2568772,21.0317871 25.4488654,21.242365 27.1700814,18.9899186 C28.2185039,17.6182943 28.637539,16.7808988 28.5064862,16.4228343 C28.3821112,16.0803379 27.6108195,16.1712879 27.6108195,16.1712879 L25.0448555,16.186856 C25.0448555,16.186856 24.8545367,16.1614555 24.7134671,16.2442118 C24.5757365,16.3253294 24.4864202,16.5146037 24.4864202,16.5146037 C24.4864202,16.5146037 24.0807408,17.5756871 23.5390002,18.4786321 C22.396253,20.3828466 21.939655,20.483629 21.7526752,20.3656398 C21.3177802,20.0895123 21.4262952,19.2578524 21.4262952,18.6670871 C21.4262952,16.8210479 21.7117734,16.05166 20.8711989,15.8525532 C20.5923987,15.7861843 20.3870548,15.7427577 19.6733595,15.7353834 C18.7576593,15.7263704 17.9830286,15.7386609 17.5439599,15.9492388 C17.251804,16.089351 17.0264265,16.4023501 17.1641572,16.4203762 C17.3336077,16.4424992 17.7175841,16.521978 17.9212585,16.7940087 C18.1841989,17.1455181 18.1750168,17.9337515 18.1750168,17.9337515 C18.1750168,17.9337515 18.3261032,20.1067191 17.8219255,20.3762916 C17.4763467,20.5614691 17.0022193,20.1837398 15.9830124,18.4556898 C15.4613053,17.5707708 15.0673122,16.5924438 15.0673122,16.5924438 C15.0673122,16.5924438 14.9913516,16.4097244 14.8552904,16.3114001 C14.6908483,16.1925915 14.4612972,16.1557199 14.4612972,16.1557199 L12.0230471,16.1712879 C12.0230471,16.1712879 11.6566,16.1811204 11.5222083,16.3376199 C11.4028417,16.4760933 11.5130263,16.763692 11.5130263,16.763692 C11.5130263,16.763692 13.4220568,21.1481376 15.5840108,23.3579768 C17.5664977,25.3834579 19.8169333,25.2507201 19.8169333,25.2507201 L20.8369749,25.2507201 Z"/>
  </defs>
  <use fill-rule="evenodd" xlink:href="#vk-a"/>
</svg>