<svg xmlns="http://www.w3.org/2000/svg" xmlns:xlink="http://www.w3.org/1999/xlink" width="40" height="40" viewBox="0 0 40 40">
  <defs>
    <path id="youtube-a" d="M27.6656364,15.7957621 C28,17.0768992 28,19.75 28,19.75 C28,19.75 28,22.4230081 27.6656364,23.7042379 C27.4816364,24.4111169 26.9394545,24.967754 26.251,25.1567621 C25.0033636,25.5 20,25.5 20,25.5 C20,25.5 14.9966364,25.5 13.7489091,25.1567621 C13.0604545,24.967754 12.5182727,24.4111169 12.3342727,23.7042379 C12,22.4230081 12,19.75 12,19.75 C12,19.75 12,17.0768992 12.3342727,15.7957621 C12.5182727,15.0888831 13.0604545,14.532246 13.7489091,14.3433306 C14.9966364,14 20,14 20,14 C20,14 25.0033636,14 26.251,14.3433306 C26.9394545,14.532246 27.4816364,15.0888831 27.6656364,15.7957621 Z M18.5,22.5 L22.5,20.0000955 L18.5,17.5 L18.5,22.5 Z"/>
  </defs>
  <use fill-rule="evenodd" xlink:href="#youtube-a"/>
</svg>
